# xmcd
#
# Track frame offsets: 
#        182
#        11885
#        24890
#        37935
#        50705
#        61210
#        74225
#        85782
#        98427
#        110867
#        120742
#
# Disc length: 1790 seconds
#
# Revision: 4
# Processed by: cddbd v1.5PL3 Copyright (c) Steve Scherf et al.
# Submitted via: ExactAudioCopy v0.95a4
#
DISCID=9106fc0b
DTITLE=Stevie Wonder - Motown Legends: Stevie Wonder
DYEAR=1994
DGENRE=Soul
TTITLE0=I Was Made to Love Her
TTITLE1=Music Talk
TTITLE2=Every Time I See You I Go Wild
TTITLE3=A Place In The Sun
TTITLE4=Respect
TTITLE5=Uptight (Everything's Alright)
TTITLE6=Hold Me
TTITLE7=Ain't That Asking For Trouble
TTITLE8=Hey Love
TTITLE9=Baby Don't You Do It
TTITLE10=Angie Girl
EXTD=
EXTT0=
EXTT1=
EXTT2=
EXTT3=
EXTT4=
EXTT5=
EXTT6=
EXTT7=
EXTT8=
EXTT9=
EXTT10=
PLAYORDER=
